# Blender v2.79 (sub 0) OBJ File: 'ship1.blend'
# www.blender.org
mtllib ship1.mtl
o Cone_Cone.001
v 0.000909 -0.677506 -0.317133
v 1.097185 -0.995432 0.610536
v -1.095367 -0.995432 0.610536
v 0.000909 1.709018 0.181583
v 0.217415 -0.995432 0.056583
v -0.000042 -0.998692 0.391626
v -0.215597 -0.995432 0.056583
v 0.000909 0.356793 -0.094771
v -0.107344 -0.633861 -0.157271
v 0.109162 -0.633861 -0.157271
v 0.000909 -0.995432 0.010265
v 0.203846 -0.020447 0.119083
v -0.202028 -0.020447 0.119083
v 0.171064 -1.183390 0.076654
v -0.000042 -1.186650 0.331413
v -0.169246 -1.183390 0.076654
v 0.000909 -1.183390 0.076654
v 0.100119 -1.183390 0.107374
v -0.000042 -1.186650 0.239253
v -0.098301 -1.183390 0.107374
v 0.000909 -1.183390 0.107374
v 0.046184 -1.150964 0.130728
v 0.000909 -1.150964 0.209147
v -0.044366 -1.150964 0.130728
v 0.000909 -1.150964 0.130728
v 0.549047 0.356793 0.396060
v -0.547705 -0.939876 0.386030
v -0.547229 0.356793 0.396060
v 0.548571 -0.939876 0.386030
v 0.000433 0.355163 0.286604
v 0.102378 1.032905 0.150333
v -0.100560 1.032905 0.150333
v 0.650516 -0.319320 0.364810
v -0.648698 -0.319320 0.364810
vn 0.7686 0.1129 -0.6297
vn -0.8054 0.1246 -0.5794
vn 0.0000 -0.9647 0.2634
vn 0.0377 -0.9785 0.2030
vn 0.8223 -0.1440 0.5505
vn -0.0375 -0.9785 0.2028
vn 0.5241 0.0518 -0.8501
vn -0.5241 0.0518 -0.8501
vn -0.3793 -0.0070 0.9252
vn -0.0019 0.0773 0.9970
vn -0.1859 -0.4584 -0.8691
vn 0.0000 -0.4204 -0.9073
vn 0.1859 -0.4584 -0.8691
vn -0.7686 0.1129 -0.6297
vn -0.8203 0.1249 -0.5582
vn -0.9162 0.0383 -0.3990
vn 0.8054 0.1246 -0.5794
vn 0.8203 0.1249 -0.5582
vn 0.9162 0.0383 -0.3990
vn 0.0000 -1.0000 0.0000
vn -0.8294 -0.1704 0.5320
vn -0.2067 -0.1541 -0.9662
vn 0.0000 -0.3330 -0.9429
vn 0.0000 -0.5844 0.8114
vn -0.0159 -0.9992 -0.0368
vn -0.0193 -0.9998 -0.0000
vn -0.5883 -0.7339 -0.3396
vn 0.7022 -0.4699 -0.5348
vn 0.8272 -0.1714 0.5352
vn 0.5188 0.0752 -0.8516
vn -0.6206 0.1289 -0.7735
vn -0.8250 -0.1451 0.5461
vn 0.2067 -0.1541 -0.9662
vn 0.0190 -0.9998 0.0000
vn 0.0158 -0.9992 -0.0365
vn -0.7082 -0.4441 -0.5488
vn 0.5883 -0.7339 -0.3396
vn -0.5188 0.0752 -0.8516
vn 0.1918 0.2209 0.9563
vn 0.6206 0.1289 -0.7735
vn -0.6361 0.0599 0.7693
vn 0.3799 -0.0073 0.9250
vn 0.1960 -0.0077 0.9806
vn -0.1914 0.2211 0.9563
vn 0.0019 0.0773 0.9970
vn -0.1956 -0.0075 0.9806
vn 0.6343 0.0596 0.7708
usemtl None
s off
f 4//1 31//1 12//1 8//1
f 1//2 9//2 8//2
f 1//3 10//3 9//3
f 7//4 6//4 27//4 3//4
f 5//5 15//5 14//5
f 5//6 2//6 29//6 6//6
f 12//7 33//7 2//7 5//7
f 3//8 34//8 13//8 7//8
f 2//9 26//9 29//9
f 6//10 30//10 27//10
f 9//11 11//11 7//11
f 9//12 10//12 11//12
f 10//13 5//13 11//13
f 8//14 13//14 32//14 4//14
f 8//15 9//15 13//15
f 9//16 7//16 13//16
f 8//17 10//17 1//17
f 8//18 12//18 10//18
f 12//19 5//19 10//19
f 17//20 20//20 16//20
f 7//21 15//21 6//21
f 11//22 16//22 7//22
f 11//23 14//23 17//23
f 21//24 22//24 25//24
f 17//20 18//20 21//20
f 14//25 19//25 18//25
f 16//26 19//26 15//26
f 25//20 23//20 24//20
f 18//27 23//27 22//27
f 20//28 23//28 19//28
f 21//24 24//24 20//24
f 5//29 6//29 15//29
f 12//30 31//30 33//30
f 3//31 28//31 34//31
f 17//20 21//20 20//20
f 7//32 16//32 15//32
f 11//23 17//23 16//23
f 11//33 5//33 14//33
f 21//24 18//24 22//24
f 17//20 14//20 18//20
f 14//34 15//34 19//34
f 16//35 20//35 19//35
f 25//20 22//20 23//20
f 18//36 19//36 23//36
f 20//37 24//37 23//37
f 21//24 25//24 24//24
f 34//38 32//38 13//38
f 34//31 28//31 32//31
f 30//39 32//39 28//39
f 33//40 26//40 2//40
f 33//40 31//40 26//40
f 30//41 4//41 32//41
f 27//42 28//42 3//42
f 27//43 30//43 28//43
f 31//44 30//44 26//44
f 29//45 30//45 6//45
f 29//46 26//46 30//46
f 30//47 31//47 4//47
