# Blender v2.79 (sub 0) OBJ File: 'ship1.blend'
# www.blender.org
mtllib ship1.mtl
o Cone_Cone.001
v -0.023492 0.350297 -0.324987
v 1.072785 -0.577372 -0.642913
v -1.119768 -0.577372 -0.642913
v -0.023492 -0.148419 2.061536
v 0.193015 -0.023419 -0.642913
v -0.024443 -0.358462 -0.646173
v -0.239998 -0.023419 -0.642913
v -0.023492 0.127935 0.709311
v -0.131745 0.190435 -0.281342
v 0.084762 0.190435 -0.281342
v -0.023492 0.022899 -0.642913
v 0.179446 -0.085919 0.332072
v -0.226429 -0.085919 0.332072
v 0.146663 -0.043490 -0.830871
v -0.024443 -0.298249 -0.834131
v -0.193646 -0.043490 -0.830871
v -0.023492 -0.043490 -0.830871
v 0.075718 -0.074210 -0.830871
v -0.024443 -0.206088 -0.834131
v -0.122701 -0.074210 -0.830871
v -0.023492 -0.074210 -0.830871
v 0.021784 -0.097564 -0.798446
v -0.023492 -0.175983 -0.798446
v -0.068767 -0.097564 -0.798446
v -0.023492 -0.097564 -0.798446
v 0.524647 -0.362896 0.709311
v -0.572105 -0.352866 -0.587357
v -0.571630 -0.362896 0.709311
v 0.524171 -0.352866 -0.587357
v -0.023967 -0.253440 0.707682
v 0.077977 -0.117169 1.385424
v -0.124960 -0.117169 1.385424
v 0.626115 -0.331646 0.033199
v -0.673098 -0.331646 0.033199
vn 0.7686 0.6297 0.1129
vn -0.8054 0.5794 0.1246
vn 0.0000 -0.2634 -0.9647
vn 0.0377 -0.2030 -0.9785
vn 0.8223 -0.5505 -0.1440
vn -0.0375 -0.2028 -0.9785
vn 0.5241 0.8501 0.0518
vn -0.5241 0.8501 0.0518
vn -0.3793 -0.9252 -0.0070
vn -0.0019 -0.9970 0.0773
vn -0.1859 0.8691 -0.4584
vn 0.0000 0.9073 -0.4204
vn 0.1859 0.8691 -0.4584
vn -0.7686 0.6297 0.1129
vn -0.8203 0.5582 0.1249
vn -0.9162 0.3990 0.0383
vn 0.8054 0.5794 0.1246
vn 0.8203 0.5582 0.1249
vn 0.9162 0.3990 0.0383
vn -0.0000 0.0000 -1.0000
vn -0.8294 -0.5320 -0.1704
vn -0.2067 0.9662 -0.1541
vn 0.0000 0.9429 -0.3330
vn 0.0000 -0.8114 -0.5844
vn -0.0159 0.0368 -0.9992
vn -0.0193 0.0000 -0.9998
vn -0.5883 0.3396 -0.7339
vn 0.7022 0.5348 -0.4699
vn 0.8271 -0.5352 -0.1714
vn 0.5188 0.8516 0.0752
vn -0.6206 0.7735 0.1289
vn -0.8250 -0.5461 -0.1451
vn 0.2067 0.9662 -0.1541
vn 0.0190 0.0000 -0.9998
vn 0.0158 0.0365 -0.9992
vn -0.7082 0.5488 -0.4441
vn 0.5883 0.3396 -0.7339
vn -0.5188 0.8516 0.0752
vn 0.1918 -0.9563 0.2209
vn 0.6206 0.7735 0.1289
vn -0.6361 -0.7693 0.0599
vn 0.3799 -0.9250 -0.0073
vn 0.1960 -0.9806 -0.0077
vn -0.1914 -0.9563 0.2211
vn 0.0019 -0.9970 0.0773
vn -0.1956 -0.9806 -0.0075
vn 0.6343 -0.7708 0.0596
usemtl None
s off
f 4//1 31//1 12//1 8//1
f 1//2 9//2 8//2
f 1//3 10//3 9//3
f 7//4 6//4 27//4 3//4
f 5//5 15//5 14//5
f 5//6 2//6 29//6 6//6
f 12//7 33//7 2//7 5//7
f 3//8 34//8 13//8 7//8
f 2//9 26//9 29//9
f 6//10 30//10 27//10
f 9//11 11//11 7//11
f 9//12 10//12 11//12
f 10//13 5//13 11//13
f 8//14 13//14 32//14 4//14
f 8//15 9//15 13//15
f 9//16 7//16 13//16
f 8//17 10//17 1//17
f 8//18 12//18 10//18
f 12//19 5//19 10//19
f 17//20 20//20 16//20
f 7//21 15//21 6//21
f 11//22 16//22 7//22
f 11//23 14//23 17//23
f 21//24 22//24 25//24
f 17//20 18//20 21//20
f 14//25 19//25 18//25
f 16//26 19//26 15//26
f 25//20 23//20 24//20
f 18//27 23//27 22//27
f 20//28 23//28 19//28
f 21//24 24//24 20//24
f 5//29 6//29 15//29
f 12//30 31//30 33//30
f 3//31 28//31 34//31
f 17//20 21//20 20//20
f 7//32 16//32 15//32
f 11//23 17//23 16//23
f 11//33 5//33 14//33
f 21//24 18//24 22//24
f 17//20 14//20 18//20
f 14//34 15//34 19//34
f 16//35 20//35 19//35
f 25//20 22//20 23//20
f 18//36 19//36 23//36
f 20//37 24//37 23//37
f 21//24 25//24 24//24
f 34//38 32//38 13//38
f 34//31 28//31 32//31
f 30//39 32//39 28//39
f 33//40 26//40 2//40
f 33//40 31//40 26//40
f 30//41 4//41 32//41
f 27//42 28//42 3//42
f 27//43 30//43 28//43
f 31//44 30//44 26//44
f 29//45 30//45 6//45
f 29//46 26//46 30//46
f 30//47 31//47 4//47
